<svg xmlns="http://www.w3.org/2000/svg" width="20" height="20" viewBox="0 0 20 20">
    <g fill="#78909C" fill-rule="nonzero">
        <path d="M17.607 16.746c0 .881-.716 1.624-1.597 1.624H3.231c-.881 0-1.597-.743-1.597-1.624V3.967c0-.881.716-1.571 1.597-1.571h7.454V1.332H3.231C1.763 1.332.569 2.5.569 3.968v12.778c0 1.468 1.194 2.688 2.662 2.688h12.778c1.468 0 2.662-1.221 2.662-2.688V9.318h-1.065v7.428h.001z"/>
        <path d="M18.807 1.17c-.804-.805-2.207-.805-3.012 0L8.652 8.313a.532.532 0 0 0-.14.247l-.752 3.011a.535.535 0 0 0 .516.662.518.518 0 0 0 .129-.016l3.012-.753a.527.527 0 0 0 .247-.14l7.143-7.143c.402-.402.624-.937.624-1.506a2.11 2.11 0 0 0-.624-1.505zm-7.791 9.297l-2.008.502.502-2.008 5.909-5.909 1.506 1.506-5.909 5.909zm7.038-7.039l-.376.376-1.506-1.506.376-.376a1.091 1.091 0 0 1 1.506 0c.201.201.312.468.312.753s-.111.552-.312.753z"/>
    </g>
</svg>
