<svg xmlns="http://www.w3.org/2000/svg" width="20" height="19" viewBox="0 0 20 19">
    <path fill="#0231B7" fill-rule="nonzero" d="M18.383 1.617A5.634 5.634 0 0 0 14.468.01a5.46 5.46 0 0 0-2.51.607A5.39 5.39 0 0 0 10 2.277 5.391 5.391 0 0 0 8.043.616 5.46 5.46 0 0 0 5.532.01c-1.5 0-2.925.628-3.915 1.607A5.553 5.553 0 0 0 0 5.52c0 1.032.22 2.033.49 2.787.133.374.336.78.606 1.192.273.417.521.766.734 1.042.213.277.516.623.925 1.022a42.43 42.43 0 0 0 2.096 1.915c.563.49.965.854 1.223 1.085.253.226.617.574 1.096 1.032a16.933 16.933 0 0 1 2.351 2.755.557.557 0 0 0 .479.266.572.572 0 0 0 .5-.266c.43-.646.928-1.306 1.51-1.958a24.509 24.509 0 0 1 1.468-1.532c.397-.37.966-.885 1.703-1.542.455-.407.819-.713 1.064-.936.244-.224.563-.532.957-.926.394-.393.705-.732.926-1.01.226-.286.464-.63.734-1.043.55-.843.79-1.51.989-2.447.099-.467.149-.947.149-1.436 0-1.5-.628-2.926-1.617-3.904zm.34 4.99c-.205 1.18-.821 2.337-1.85 3.478-.45.498-1.275 1.29-2.48 2.362-.624.556-1.127 1.01-1.52 1.372-.384.351-.855.827-1.416 1.425A17.935 17.935 0 0 0 10 17a20.34 20.34 0 0 0-1.51-1.724 33.514 33.514 0 0 0-1.352-1.34c-.33-.298-.832-.742-1.52-1.351l-.735-.649-.67-.606a9.791 9.791 0 0 1-.66-.639c-.14-.157-.33-.361-.563-.617a5.484 5.484 0 0 1-.532-.66c-.244-.372-.659-.929-.809-1.393l-.244-.755c-.179-.55-.234-1.117-.234-1.745 0-1.191.425-2.213 1.276-3.053C3.31 1.617 4.33 1.19 5.532 1.19c.84 0 1.617.224 2.33.681a4.308 4.308 0 0 1 1.617 1.82c.103.22.277.329.521.329.245 0 .434-.102.543-.33a4.307 4.307 0 0 1 3.925-2.5c1.203 0 2.224.426 3.075 1.266.851.84 1.277 1.862 1.277 3.064 0 .372-.036.734-.097 1.085z"/>
</svg>
