<svg xmlns="http://www.w3.org/2000/svg" width="24" height="24" viewBox="0 0 24 24">
    <path fill="#0075AF" fill-rule="evenodd" d="M21.785 7.234a.728.728 0 0 1 .078.566l-2.988 8.79a.578.578 0 0 1-.225.293.614.614 0 0 1-.36.117H9.851a.582.582 0 0 1-.362-.127.622.622 0 0 1-.224-.322L5.809 3.855c-.092-.312-.19-.494-.293-.546a.6.6 0 0 0-.235-.079H2.605a.584.584 0 0 1-.43-.175.584.584 0 0 1-.175-.43c0-.182.059-.332.176-.45A.584.584 0 0 1 2.606 2H5.28c.196 0 .482.081.86.244.377.163.664.583.859 1.26L8.016 6.96h13.261c.091 0 .183.026.274.078.09.052.17.117.234.195zM17.86 15.75l2.52-7.54H8.348l1.992 7.54h7.52zm-1.23 2.5c.43 0 .797.153 1.103.459.306.306.46.674.46 1.104 0 .43-.154.797-.46 1.103a1.505 1.505 0 0 1-1.103.459c-.43 0-.798-.153-1.104-.459a1.505 1.505 0 0 1-.459-1.104c0-.43.153-.797.46-1.103a1.505 1.505 0 0 1 1.103-.459zm-5.625 0c.43 0 .797.153 1.103.459.306.306.46.674.46 1.104 0 .43-.154.797-.46 1.103a1.505 1.505 0 0 1-1.103.459c-.43 0-.798-.153-1.104-.459a1.505 1.505 0 0 1-.459-1.104c0-.43.153-.797.46-1.103a1.505 1.505 0 0 1 1.103-.459z"/>
</svg>
