<svg xmlns="http://www.w3.org/2000/svg" xmlns:xlink="http://www.w3.org/1999/xlink" width="131" height="31" viewBox="0 0 131 31">
    <defs>
        <circle id="a" cx="15" cy="15" r="15"/>
    </defs>
    <g fill="none" fill-rule="evenodd">
        <path fill="#0231B7" d="M45.257 15.137h-1.714V9.891L39 3h2.091l3.36 5.486L47.83 3H49.8l-4.543 6.891v5.246zm7.877-1.508h6.343v1.508h-8.04V3h7.783v1.491h-6.086v3.635h5.726v1.457h-5.726v4.046zm10.517 0h5.418v1.508h-7.115V3h1.697v10.629zm8.975 0h5.417v1.508h-7.114V3h1.697v10.629zm13.063 1.508H83.99V3h1.698v12.137zm11.717-2.434h.034V3h1.697v12.137h-2.143L90.583 5.23h-.034v9.908H88.85V3h2.212l6.343 9.703zM102.3 3h4.166c.777 0 1.554.114 2.331.343.777.228 1.48.588 2.109 1.08a5.527 5.527 0 0 1 1.525 1.886c.389.765.583 1.685.583 2.76 0 1.04-.194 1.94-.583 2.7a5.638 5.638 0 0 1-1.525 1.885 6.554 6.554 0 0 1-2.109 1.115 7.696 7.696 0 0 1-2.331.368H102.3V3zm1.697 10.646h2.126c.731 0 1.408-.103 2.031-.309a4.695 4.695 0 0 0 1.612-.891 3.991 3.991 0 0 0 1.054-1.44c.251-.572.377-1.217.377-1.937 0-.755-.126-1.418-.377-1.989a3.911 3.911 0 0 0-1.054-1.431 4.663 4.663 0 0 0-1.612-.875c-.623-.2-1.3-.3-2.031-.3h-2.126v9.172zm13.26 1.491h-1.697V3h1.697v12.137zm3.66 0h-1.886L124.294 3h1.543l5.212 12.137h-1.92l-1.235-2.983h-5.76l-1.217 2.983zm1.817-4.474h4.543l-2.263-5.692-2.28 5.692z"/>
        <g>
            <mask id="b" fill="#fff">
                <use xlink:href="#a"/>
            </mask>
            <use fill="#0231B7" fill-rule="nonzero" xlink:href="#a"/>
            <path fill="#FFF" d="M34.89 6.568c0 .136-.051.187-.153.153a1.252 1.252 0 0 0-.46-.102h-.662c-1.02 0-2.344.4-3.975 1.198-1.632.798-3.373 1.81-5.225 3.033a72.69 72.69 0 0 0-5.53 4.052c-1.835 1.478-3.45 2.897-4.843 4.256-.407.408-.781.798-1.12 1.172a8.21 8.21 0 0 0-.918 1.223c-.85 1.496-1.614 2.88-2.294 4.155-.68 1.274-1.138 2.319-1.376 3.134a.856.856 0 0 1-.153.332c-.068.084-.238.11-.51.076-.51-.068-.9-.102-1.172-.102-.272 0-.501.026-.688.077a1.718 1.718 0 0 0-.536.254c-.17.12-.407.28-.713.485-.102.034-.162-.017-.179-.153a.41.41 0 0 1 .128-.357c.34-.272.747-.705 1.223-1.3.476-.595.969-1.274 1.478-2.039.51-.764.994-1.563 1.453-2.395.459-.833.858-1.606 1.198-2.32.374-.815.713-1.817 1.02-3.007.305-1.19.458-2.26.458-3.211 0-.883-.093-1.741-.28-2.574a6.344 6.344 0 0 0-.943-2.217 4.66 4.66 0 0 0-1.759-1.53c-.73-.373-1.622-.56-2.676-.56-1.223 0-2.234.187-3.033.56-.798.374-1.503.986-2.115 1.836a.426.426 0 0 1-.408.178c-.17-.017-.17-.161 0-.433 1.02-1.292 2.175-2.226 3.466-2.804 1.292-.577 2.719-.866 4.282-.866.985 0 1.835.195 2.549.586.713.39 1.29.909 1.733 1.555.441.645.764 1.401.968 2.268.204.866.306 1.758.306 2.676 0 .408-.026.858-.077 1.35-.05.493-.11.952-.178 1.377l-.178 1.121a5.912 5.912 0 0 0-.077.586c-.034.17-.008.298.077.383.085.084.195.059.33-.077a372.317 372.317 0 0 0 7.315-5.734 135.72 135.72 0 0 1 7.213-5.429c.713-.51 1.529-1.002 2.446-1.478.918-.475 1.818-.713 2.702-.713.407 0 .79.161 1.146.484.357.323.604.603.74.841z" mask="url(#b)"/>
        </g>
        <text fill="#263238" font-family="NunitoSans-Bold, Nunito Sans" font-size="12" font-weight="bold">
            <tspan x="40" y="28">World Cup Kits</tspan>
        </text>
    </g>
</svg>
